<svg width="373" height="66" viewBox="0 0 373 66" fill="none" xmlns="http://www.w3.org/2000/svg">
<path d="M1 -1L11.6571 16.7016L22.3143 -1L32.9714 16.7016L43.6286 -1L54.2857 16.7016L64.9429 -1L75.6 16.7016L86.2571 -1L96.9143 16.7016L107.571 -1L118.229 16.7016L128.886 -1L139.543 16.7016L150.2 -1L160.857 16.7016L171.514 -1L182.171 16.7016L192.829 -1L203.486 16.7016L214.143 -1L224.8 16.7016L235.457 -1L246.114 16.7016L256.771 -1L267.429 16.7016L278.086 -1L288.743 16.7016L299.4 -1L310.057 16.7016L320.714 -1L331.371 16.7016L342.029 -1L352.686 16.7016L363.343 -1L374 16.7016" stroke="#783CC8"/>
<path d="M1 22.1478L11.6571 4.44617L22.3143 22.1478L32.9714 4.44617L43.6286 22.1478L54.2857 4.44617L64.9429 22.1478L75.6 4.44617L86.2571 22.1478L96.9143 4.44617L107.571 22.1478L118.229 4.44617L128.886 22.1478L139.543 4.44617L150.2 22.1478L160.857 4.44617L171.514 22.1478L182.171 4.44617L192.829 22.1478L203.486 4.44617L214.143 22.1478L224.8 4.44617L235.457 22.1478L246.114 4.44617L256.771 22.1478L267.429 4.44617L278.086 22.1478L288.743 4.44617L299.4 22.1478L310.057 4.44617L320.714 22.1478L331.371 4.44617L342.029 22.1478L352.686 4.44617L363.343 22.1478L374 4.44617" stroke="#783CC8"/>
<path d="M1 9.89233L11.6571 27.594L22.3143 9.89233L32.9714 27.594L43.6286 9.89233L54.2857 27.594L64.9429 9.89233L75.6 27.594L86.2571 9.89233L96.9143 27.594L107.571 9.89233L118.229 27.594L128.886 9.89233L139.543 27.594L150.2 9.89233L160.857 27.594L171.514 9.89233L182.171 27.594L192.829 9.89233L203.486 27.594L214.143 9.89233L224.8 27.594L235.457 9.89233L246.114 27.594L256.771 9.89233L267.429 27.594L278.086 9.89233L288.743 27.594L299.4 9.89233L310.057 27.594L320.714 9.89233L331.371 27.594L342.029 9.89233L352.686 27.594L363.343 9.89233L374 27.594" stroke="#783CC8"/>
<path d="M1 33.0415L11.6571 15.3398L22.3143 33.0415L32.9714 15.3398L43.6286 33.0415L54.2857 15.3398L64.9429 33.0415L75.6 15.3398L86.2571 33.0415L96.9143 15.3398L107.571 33.0415L118.229 15.3398L128.886 33.0415L139.543 15.3398L150.2 33.0415L160.857 15.3398L171.514 33.0415L182.171 15.3398L192.829 33.0415L203.486 15.3398L214.143 33.0415L224.8 15.3398L235.457 33.0415L246.114 15.3398L256.771 33.0415L267.429 15.3398L278.086 33.0415L288.743 15.3398L299.4 33.0415L310.057 15.3398L320.714 33.0415L331.371 15.3398L342.029 33.0415L352.686 15.3398L363.343 33.0415L374 15.3398" stroke="#783CC8"/>
<path d="M1 20.786L11.6571 38.4876L22.3143 20.786L32.9714 38.4876L43.6286 20.786L54.2857 38.4876L64.9429 20.786L75.6 38.4876L86.2571 20.786L96.9143 38.4876L107.571 20.786L118.229 38.4876L128.886 20.786L139.543 38.4876L150.2 20.786L160.857 38.4876L171.514 20.786L182.171 38.4876L192.829 20.786L203.486 38.4876L214.143 20.786L224.8 38.4876L235.457 20.786L246.114 38.4876L256.771 20.786L267.429 38.4876L278.086 20.786L288.743 38.4876L299.4 20.786L310.057 38.4876L320.714 20.786L331.371 38.4876L342.029 20.786L352.686 38.4876L363.343 20.786L374 38.4876" stroke="#783CC8"/>
<path d="M1 43.9338L11.6571 26.2322L22.3143 43.9338L32.9714 26.2322L43.6286 43.9338L54.2857 26.2322L64.9429 43.9338L75.6 26.2322L86.2571 43.9338L96.9143 26.2322L107.571 43.9338L118.229 26.2322L128.886 43.9338L139.543 26.2322L150.2 43.9338L160.857 26.2322L171.514 43.9338L182.171 26.2322L192.829 43.9338L203.486 26.2322L214.143 43.9338L224.8 26.2322L235.457 43.9338L246.114 26.2322L256.771 43.9338L267.429 26.2322L278.086 43.9338L288.743 26.2322L299.4 43.9338L310.057 26.2322L320.714 43.9338L331.371 26.2322L342.029 43.9338L352.686 26.2322L363.343 43.9338L374 26.2322" stroke="#783CC8"/>
<path d="M1 31.6796L11.6571 49.3812L22.3143 31.6796L32.9714 49.3812L43.6286 31.6796L54.2857 49.3812L64.9429 31.6796L75.6 49.3812L86.2571 31.6796L96.9143 49.3812L107.571 31.6796L118.229 49.3812L128.886 31.6796L139.543 49.3812L150.2 31.6796L160.857 49.3812L171.514 31.6796L182.171 49.3812L192.829 31.6796L203.486 49.3812L214.143 31.6796L224.8 49.3812L235.457 31.6796L246.114 49.3812L256.771 31.6796L267.429 49.3812L278.086 31.6796L288.743 49.3812L299.4 31.6796L310.057 49.3812L320.714 31.6796L331.371 49.3812L342.029 31.6796L352.686 49.3812L363.343 31.6796L374 49.3812" stroke="#783CC8"/>
<path d="M1 54.8274L11.6571 37.1257L22.3143 54.8274L32.9714 37.1257L43.6286 54.8274L54.2857 37.1257L64.9429 54.8274L75.6 37.1257L86.2571 54.8274L96.9143 37.1257L107.571 54.8274L118.229 37.1257L128.886 54.8274L139.543 37.1257L150.2 54.8274L160.857 37.1257L171.514 54.8274L182.171 37.1257L192.829 54.8274L203.486 37.1257L214.143 54.8274L224.8 37.1257L235.457 54.8274L246.114 37.1257L256.771 54.8274L267.429 37.1257L278.086 54.8274L288.743 37.1257L299.4 54.8274L310.057 37.1257L320.714 54.8274L331.371 37.1257L342.029 54.8274L352.686 37.1257L363.343 54.8274L374 37.1257" stroke="#783CC8"/>
<path d="M1 41.2113L11.6571 58.9118L22.3143 41.2113L32.9714 58.9118L43.6286 41.2113L54.2857 58.9118L64.9429 41.2113L75.6 58.9118L86.2571 41.2113L96.9143 58.9118L107.571 41.2113L118.229 58.9118L128.886 41.2113L139.543 58.9118L150.2 41.2113L160.857 58.9118L171.514 41.2113L182.171 58.9118L192.829 41.2113L203.486 58.9118L214.143 41.2113L224.8 58.9118L235.457 41.2113L246.114 58.9118L256.771 41.2113L267.429 58.9118L278.086 41.2113L288.743 58.9118L299.4 41.2113L310.057 58.9118L320.714 41.2113L331.371 58.9118L342.029 41.2113L352.686 58.9118L363.343 41.2113L374 58.9118" stroke="#783CC8"/>
<path d="M1 64.3591L11.6571 46.6575L22.3143 64.3591L32.9714 46.6575L43.6286 64.3591L54.2857 46.6575L64.9429 64.3591L75.6 46.6575L86.2571 64.3591L96.9143 46.6575L107.571 64.3591L118.229 46.6575L128.886 64.3591L139.543 46.6575L150.2 64.3591L160.857 46.6575L171.514 64.3591L182.171 46.6575L192.829 64.3591L203.486 46.6575L214.143 64.3591L224.8 46.6575L235.457 64.3591L246.114 46.6575L256.771 64.3591L267.429 46.6575L278.086 64.3591L288.743 46.6575L299.4 64.3591L310.057 46.6575L320.714 64.3591L331.371 46.6575L342.029 64.3591L352.686 46.6575L363.343 64.3591L374 46.6575" stroke="#783CC8"/>
</svg>
