<svg width="375" height="104" viewBox="0 0 375 104" fill="none" xmlns="http://www.w3.org/2000/svg">
<path d="M-1 4.51537C0.477091 8.8508 1.95549 13.1875 3.43259 15.1744C4.91099 17.1602 6.38808 16.7974 7.86648 13.9897C9.34357 11.1819 10.822 5.93162 12.2991 5.69888C13.7775 5.46738 15.2546 10.2534 16.733 15.1744C18.2101 20.0942 19.6885 25.1489 21.1656 23.464C22.644 21.7803 24.121 13.3583 25.5995 12.8049C27.0765 12.2528 28.5549 19.5705 30.032 19.911C31.5104 20.2526 32.9875 13.6183 34.4659 8.06839C35.943 2.51726 37.4214 -1.94816 38.8985 3.33061C40.3769 8.60939 41.854 23.6324 43.3324 25.8335C44.8095 28.0334 46.2879 17.4102 47.765 16.3579C49.2434 15.3057 50.7205 23.8242 52.1989 23.464C53.676 23.105 55.1544 13.8684 56.6315 13.9897C58.1099 14.111 59.587 23.589 61.0654 23.464C62.5425 23.3402 64.0209 13.6121 65.498 9.2519C66.9764 4.89171 68.4535 5.89944 69.9319 8.06839C71.409 10.2361 72.8874 13.5663 74.3645 13.9897C75.8415 14.4131 77.3199 11.9284 78.797 9.2519C80.2754 6.57661 81.7525 3.70944 83.2309 6.88363C84.708 10.0578 86.1864 19.2734 87.6635 23.464C89.1419 27.6546 90.619 26.8202 92.0974 21.0957C93.5745 15.3713 95.0529 4.75554 96.53 5.69888C98.0084 6.64347 99.4855 19.1471 100.964 19.911C102.441 20.676 103.919 9.70005 105.396 4.51537C106.875 -0.670559 108.352 -0.0664207 109.83 3.33061C111.307 6.72765 112.786 12.9176 114.263 12.8049C115.741 12.6935 117.218 6.27826 118.697 5.69888C120.174 5.1195 121.652 10.376 123.129 12.8049C124.608 15.2351 126.085 14.8389 127.563 16.3579C129.04 17.877 130.519 21.3111 131.996 21.0957C133.474 20.8803 134.951 17.0166 136.43 12.8049C137.907 8.59329 139.385 4.03503 140.862 5.69888C142.341 7.36397 143.818 15.2524 145.296 18.7275C146.773 22.2012 148.252 21.2604 149.729 22.2805C151.206 23.2993 152.684 26.2779 154.161 21.0957C155.64 15.9135 157.117 2.57049 158.595 3.33061C160.072 4.09074 161.551 18.9528 163.028 19.911C164.506 20.8704 165.983 7.92478 167.462 6.88363C168.939 5.84249 170.417 16.7046 171.894 18.7275C173.373 20.7491 174.85 13.9303 176.328 13.9897C177.805 14.0491 179.284 20.9868 180.761 19.911C182.239 18.8352 183.716 9.74586 185.195 8.06839C186.672 6.38968 188.15 12.124 189.627 12.8049C191.106 13.4871 192.583 9.11572 194.061 10.4367C195.538 11.7576 197.017 18.7708 198.494 18.7275C199.972 18.6829 201.449 11.5818 202.928 12.8049C204.405 14.0293 205.883 23.5791 207.36 23.464C208.839 23.3501 210.316 13.57 211.794 11.6214C213.271 9.67158 214.75 15.5533 216.227 19.911C217.705 24.2687 219.182 27.1037 220.661 22.2805C222.138 17.4573 223.616 4.97714 225.093 4.51537C226.57 4.0536 228.049 15.6102 229.526 15.1744C231.004 14.7387 232.481 2.30928 233.96 4.51537C235.437 6.72022 236.915 23.5593 238.392 24.6487C239.871 25.7382 241.348 11.0792 242.826 8.06839C244.303 5.05761 245.782 13.695 247.259 13.9897C248.737 14.2843 250.214 6.23741 251.693 5.69888C253.17 5.1616 254.648 12.1339 256.125 12.8049C257.604 13.4759 259.081 7.84555 260.559 8.06839C262.036 8.28999 263.515 14.366 264.992 16.3579C266.47 18.3511 267.947 16.2601 269.426 17.5427C270.903 18.8253 272.381 23.4826 273.858 22.2805C275.337 21.0771 276.814 14.0132 278.292 11.6214C279.769 9.22838 281.248 11.5075 282.725 11.6214C284.203 11.7353 285.68 9.68396 287.159 10.4367C288.636 11.1894 290.114 14.7436 291.591 15.1744C293.07 15.604 294.547 12.9089 296.025 11.6214C297.502 10.3327 298.981 10.4528 300.458 11.6214C301.935 12.7888 303.413 15.0061 304.89 18.7275C306.369 22.4476 307.846 27.6731 309.324 24.6487C310.801 21.6243 312.28 10.35 313.757 9.2519C315.235 8.15381 316.712 17.232 318.191 22.2805C319.668 27.3277 321.146 28.3454 322.623 24.6487C324.102 20.9521 325.579 12.5425 327.057 8.06839C328.534 3.59307 330.013 3.0533 331.49 6.88363C332.968 10.714 334.445 18.9131 335.924 21.0957C337.401 23.2783 338.879 19.4418 340.356 17.5427C341.835 15.6436 343.312 15.6808 344.79 13.9897C346.267 12.2986 347.746 8.87679 349.223 6.88363C350.701 4.89048 352.178 4.32348 353.657 3.33061C355.134 2.33775 356.612 0.917779 358.089 5.69888C359.568 10.48 361.045 21.4609 362.523 19.911C364 18.361 365.479 4.28015 366.956 4.51537C368.434 4.75058 369.911 19.3019 371.39 23.464C372.867 27.6273 374.345 21.4003 375.822 15.1744V104C374.345 104 372.867 104 371.39 104C369.911 104 368.434 104 366.956 104C365.479 104 364 104 362.523 104C361.045 104 359.568 104 358.089 104C356.612 104 355.134 104 353.657 104C352.178 104 350.701 104 349.223 104C347.746 104 346.267 104 344.79 104C343.312 104 341.835 104 340.356 104C338.879 104 337.401 104 335.924 104C334.445 104 332.968 104 331.49 104C330.013 104 328.534 104 327.057 104C325.579 104 324.102 104 322.623 104C321.146 104 319.668 104 318.191 104C316.712 104 315.235 104 313.757 104C312.28 104 310.801 104 309.324 104C307.846 104 306.369 104 304.89 104C303.413 104 301.935 104 300.458 104C298.981 104 297.502 104 296.025 104C294.547 104 293.07 104 291.591 104C290.114 104 288.636 104 287.159 104C285.68 104 284.203 104 282.725 104C281.248 104 279.769 104 278.292 104C276.814 104 275.337 104 273.858 104C272.381 104 270.903 104 269.426 104C267.947 104 266.47 104 264.992 104C263.515 104 262.036 104 260.559 104C259.081 104 257.604 104 256.125 104C254.648 104 253.17 104 251.693 104C250.214 104 248.737 104 247.259 104C245.782 104 244.303 104 242.826 104C241.348 104 239.871 104 238.392 104C236.915 104 235.437 104 233.96 104C232.481 104 231.004 104 229.526 104C228.049 104 226.57 104 225.093 104C223.616 104 222.138 104 220.661 104C219.182 104 217.705 104 216.227 104C214.75 104 213.271 104 211.794 104C210.316 104 208.839 104 207.36 104C205.883 104 204.405 104 202.928 104C201.449 104 199.972 104 198.494 104C197.017 104 195.538 104 194.061 104C192.583 104 191.106 104 189.627 104C188.15 104 186.672 104 185.195 104C183.716 104 182.239 104 180.761 104C179.284 104 177.805 104 176.328 104C174.85 104 173.373 104 171.894 104C170.417 104 168.939 104 167.462 104C165.983 104 164.506 104 163.028 104C161.551 104 160.072 104 158.595 104C157.117 104 155.64 104 154.161 104C152.684 104 151.206 104 149.729 104C148.252 104 146.773 104 145.296 104C143.818 104 142.341 104 140.862 104C139.385 104 137.907 104 136.43 104C134.951 104 133.474 104 131.996 104C130.519 104 129.04 104 127.563 104C126.085 104 124.608 104 123.129 104C121.652 104 120.174 104 118.697 104C117.218 104 115.741 104 114.263 104C112.786 104 111.307 104 109.83 104C108.352 104 106.875 104 105.396 104C103.919 104 102.441 104 100.964 104C99.4855 104 98.0084 104 96.53 104C95.0529 104 93.5745 104 92.0974 104C90.619 104 89.1419 104 87.6635 104C86.1864 104 84.708 104 83.2309 104C81.7525 104 80.2754 104 78.797 104C77.3199 104 75.8415 104 74.3645 104C72.8874 104 71.409 104 69.9319 104C68.4535 104 66.9764 104 65.498 104C64.0209 104 62.5425 104 61.0654 104C59.587 104 58.1099 104 56.6315 104C55.1544 104 53.676 104 52.1989 104C50.7205 104 49.2434 104 47.765 104C46.2879 104 44.8095 104 43.3324 104C41.854 104 40.3769 104 38.8985 104C37.4214 104 35.943 104 34.4659 104C32.9875 104 31.5104 104 30.032 104C28.5549 104 27.0765 104 25.5995 104C24.121 104 22.644 104 21.1656 104C19.6885 104 18.2101 104 16.733 104C15.2546 104 13.7775 104 12.2991 104C10.822 104 9.34357 104 7.86648 104C6.38808 104 4.91099 104 3.43259 104C1.95549 104 0.477091 104 -1 104V4.51537Z" fill="#8335D5" fill-opacity="0.15"/>
<path d="M-1 13.9898C0.477091 24.5399 1.95549 35.0888 3.43259 34.1232C4.91099 33.1576 6.38808 20.6762 7.86648 18.7276C9.34357 16.7778 10.822 25.3595 12.2991 27.0171C13.7775 28.6748 15.2546 23.4084 16.733 19.9111C18.2101 16.4138 19.6885 14.6868 21.1656 19.9111C22.644 25.1366 24.121 37.3147 25.5995 35.3079C27.0765 33.3012 28.5549 17.1083 30.032 13.9898C31.5104 10.8713 32.9875 20.826 34.4659 22.2806C35.943 23.7352 37.4214 16.6899 38.8985 17.5428C40.3769 18.3958 41.854 27.1471 43.3324 27.0171C44.8095 26.8884 46.2879 17.8783 47.765 16.3581C49.2434 14.8391 50.7205 20.8099 52.1989 24.6489C53.676 28.4879 55.1544 30.1963 56.6315 28.2019C58.1099 26.2075 59.587 20.509 61.0654 19.9111C62.5425 19.3144 64.0209 23.8169 65.498 27.0171C66.9764 30.2186 68.4535 32.1164 69.9319 31.7549C71.409 31.3934 72.8874 28.7726 74.3645 27.0171C75.8415 25.2629 77.3199 24.374 78.797 21.0959C80.2754 17.8177 81.7525 12.1502 83.2309 13.9898C84.708 15.8295 86.1864 25.1775 87.6635 29.3866C89.1419 33.5958 90.619 32.6673 92.0974 29.3866C93.5745 26.106 95.0529 20.4731 96.53 21.0959C98.0084 21.7186 99.4855 28.5968 100.964 31.7549C102.441 34.913 103.919 34.3485 105.396 34.1232C106.875 33.8979 108.352 34.0105 109.83 34.1232C111.307 34.2358 112.786 34.3485 114.263 30.5702C115.741 26.7931 117.218 19.125 118.697 18.7276C120.174 18.329 121.652 25.2023 123.129 23.4641C124.608 21.7272 126.085 11.3789 127.563 12.8051C129.04 14.2325 130.519 27.4343 131.996 28.2019C133.474 28.9694 134.951 17.3027 136.43 16.3581C137.907 15.4135 139.385 25.1911 140.862 30.5702C142.341 35.9505 143.818 36.9334 145.296 34.1232C146.773 31.313 148.252 24.7095 149.729 23.4641C151.206 22.2199 152.684 26.3338 154.161 25.8336C155.64 25.3335 157.117 20.2194 158.595 18.7276C160.072 17.2346 161.551 19.3639 163.028 21.0959C164.506 22.8278 165.983 24.1611 167.462 22.2806C168.939 20.4001 170.417 15.3046 171.894 15.1746C173.373 15.0433 174.85 19.8777 176.328 24.6489C177.805 29.4201 179.284 34.1281 180.761 30.5702C182.239 27.0134 183.716 15.1919 185.195 15.1746C186.672 15.1572 188.15 26.9441 189.627 28.2019C191.106 29.4597 192.583 20.1859 194.061 17.5428C195.538 14.8997 197.017 18.8873 198.494 22.2806C199.972 25.6727 201.449 28.4718 202.928 27.0171C204.405 25.5637 205.883 19.8566 207.36 17.5428C208.839 15.229 210.316 16.3098 211.794 16.3581C213.271 16.4064 214.75 15.4234 216.227 19.9111C217.705 24.4 219.182 34.3609 220.661 31.7549C222.138 29.149 223.616 13.9787 225.093 13.9898C226.57 14.001 228.049 29.196 229.526 34.1232C231.004 39.0516 232.481 33.7134 233.96 29.3866C235.437 25.0599 236.915 21.7446 238.392 21.0959C239.871 20.4471 241.348 22.4651 242.826 24.6489C244.303 26.8327 245.782 29.1836 247.259 29.3866C248.737 29.5897 250.214 27.646 251.693 27.0171C253.17 26.3895 254.648 27.0778 256.125 28.2019C257.604 29.326 259.081 30.8858 260.559 29.3866C262.036 27.8862 263.515 23.3255 264.992 19.9111C266.47 16.498 267.947 14.23 269.426 18.7276C270.903 23.224 272.381 34.4847 273.858 35.3079C275.337 36.1312 276.814 26.5182 278.292 21.0959C279.769 15.6735 281.248 14.4417 282.725 15.1746C284.203 15.9062 285.68 18.6038 287.159 22.2806C288.636 25.9562 290.114 30.6123 291.591 29.3866C293.07 28.161 294.547 21.055 296.025 21.0959C297.502 21.1367 298.981 28.3257 300.458 30.5702C301.935 32.8146 303.413 30.1146 304.89 27.0171C306.369 23.9209 307.846 20.4273 309.324 21.0959C310.801 21.7644 312.28 26.595 313.757 24.6489C315.235 22.7028 316.712 13.9811 318.191 13.9898C319.668 13.9985 321.146 22.7374 322.623 23.4641C324.102 24.1921 325.579 16.9077 327.057 13.9898C328.534 11.0719 330.013 12.5203 331.49 17.5428C332.968 22.5653 334.445 31.1619 335.924 34.1232C337.401 37.0844 338.879 34.4104 340.356 32.9397C341.835 31.4677 343.312 31.2003 344.79 31.7549C346.267 32.3095 347.746 33.6874 349.223 29.3866C350.701 25.0859 352.178 15.1065 353.657 13.9898C355.134 12.8731 356.612 20.6168 358.089 24.6489C359.568 28.681 361.045 29.0016 362.523 28.2019C364 27.4022 365.479 25.4808 366.956 24.6489C368.434 23.8169 369.911 24.0732 371.39 24.6489C372.867 25.2245 374.345 26.1208 375.822 27.0171V104C374.345 104 372.867 104 371.39 104C369.911 104 368.434 104 366.956 104C365.479 104 364 104 362.523 104C361.045 104 359.568 104 358.089 104C356.612 104 355.134 104 353.657 104C352.178 104 350.701 104 349.223 104C347.746 104 346.267 104 344.79 104C343.312 104 341.835 104 340.356 104C338.879 104 337.401 104 335.924 104C334.445 104 332.968 104 331.49 104C330.013 104 328.534 104 327.057 104C325.579 104 324.102 104 322.623 104C321.146 104 319.668 104 318.191 104C316.712 104 315.235 104 313.757 104C312.28 104 310.801 104 309.324 104C307.846 104 306.369 104 304.89 104C303.413 104 301.935 104 300.458 104C298.981 104 297.502 104 296.025 104C294.547 104 293.07 104 291.591 104C290.114 104 288.636 104 287.159 104C285.68 104 284.203 104 282.725 104C281.248 104 279.769 104 278.292 104C276.814 104 275.337 104 273.858 104C272.381 104 270.903 104 269.426 104C267.947 104 266.47 104 264.992 104C263.515 104 262.036 104 260.559 104C259.081 104 257.604 104 256.125 104C254.648 104 253.17 104 251.693 104C250.214 104 248.737 104 247.259 104C245.782 104 244.303 104 242.826 104C241.348 104 239.871 104 238.392 104C236.915 104 235.437 104 233.96 104C232.481 104 231.004 104 229.526 104C228.049 104 226.57 104 225.093 104C223.616 104 222.138 104 220.661 104C219.182 104 217.705 104 216.227 104C214.75 104 213.271 104 211.794 104C210.316 104 208.839 104 207.36 104C205.883 104 204.405 104 202.928 104C201.449 104 199.972 104 198.494 104C197.017 104 195.538 104 194.061 104C192.583 104 191.106 104 189.627 104C188.15 104 186.672 104 185.195 104C183.716 104 182.239 104 180.761 104C179.284 104 177.805 104 176.328 104C174.85 104 173.373 104 171.894 104C170.417 104 168.939 104 167.462 104C165.983 104 164.506 104 163.028 104C161.551 104 160.072 104 158.595 104C157.117 104 155.64 104 154.161 104C152.684 104 151.206 104 149.729 104C148.252 104 146.773 104 145.296 104C143.818 104 142.341 104 140.862 104C139.385 104 137.907 104 136.43 104C134.951 104 133.474 104 131.996 104C130.519 104 129.04 104 127.563 104C126.085 104 124.608 104 123.129 104C121.652 104 120.174 104 118.697 104C117.218 104 115.741 104 114.263 104C112.786 104 111.307 104 109.83 104C108.352 104 106.875 104 105.396 104C103.919 104 102.441 104 100.964 104C99.4855 104 98.0084 104 96.53 104C95.0529 104 93.5745 104 92.0974 104C90.619 104 89.1419 104 87.6635 104C86.1864 104 84.708 104 83.2309 104C81.7525 104 80.2754 104 78.797 104C77.3199 104 75.8415 104 74.3645 104C72.8874 104 71.409 104 69.9319 104C68.4535 104 66.9764 104 65.498 104C64.0209 104 62.5425 104 61.0654 104C59.587 104 58.1099 104 56.6315 104C55.1544 104 53.676 104 52.1989 104C50.7205 104 49.2434 104 47.765 104C46.2879 104 44.8095 104 43.3324 104C41.854 104 40.3769 104 38.8985 104C37.4214 104 35.943 104 34.4659 104C32.9875 104 31.5104 104 30.032 104C28.5549 104 27.0765 104 25.5995 104C24.121 104 22.644 104 21.1656 104C19.6885 104 18.2101 104 16.733 104C15.2546 104 13.7775 104 12.2991 104C10.822 104 9.34357 104 7.86648 104C6.38808 104 4.91099 104 3.43259 104C1.95549 104 0.477091 104 -1 104V13.9898Z" fill="#8335D5" fill-opacity="0.15"/>
<path d="M-1 44.782C0.477091 36.9616 1.95549 29.1413 3.43259 29.3864C4.91099 29.6315 6.38808 37.9409 7.86648 42.4137C9.34357 46.8866 10.822 47.5204 12.2991 44.782C13.7775 42.0448 15.2546 35.9354 16.733 35.3077C18.2101 34.68 19.6885 39.5342 21.1656 41.229C22.644 42.925 24.121 41.463 25.5995 38.8607C27.0765 36.2585 28.5549 32.5148 30.032 31.7547C31.5104 30.9945 32.9875 33.2155 34.4659 35.3077C35.943 37.3999 37.4214 39.3621 38.8985 41.229C40.3769 43.0959 41.854 44.8674 43.3324 42.4137C44.8095 39.96 46.2879 33.2836 47.765 29.3864C49.2434 25.488 50.7205 24.3688 52.1989 27.0169C53.676 29.665 55.1544 36.0802 56.6315 37.676C58.1099 39.273 59.587 36.0492 61.0654 36.4924C62.5425 36.9344 64.0209 41.042 65.498 40.0455C66.9764 39.0476 68.4535 32.9469 69.9319 30.5699C71.409 28.193 72.8874 29.5412 74.3645 32.9394C75.8415 36.3365 77.3199 41.7848 78.797 38.8607C80.2754 35.9366 81.7525 24.6412 83.2309 23.4639C84.708 22.2878 86.1864 31.2285 87.6635 32.9394C89.1419 34.6491 90.619 29.1289 92.0974 31.7547C93.5745 34.3804 95.0529 45.1522 96.53 43.5985C98.0084 42.0436 99.4855 28.162 100.964 25.8334C102.441 23.5035 103.919 32.7265 105.396 35.3077C106.875 37.8889 108.352 33.8271 109.83 31.7547C111.307 29.6823 112.786 29.5981 114.263 30.5699C115.741 31.5417 117.218 33.5696 118.697 36.4924C120.174 39.4141 121.652 43.232 123.129 43.5985C124.608 43.9649 126.085 40.8799 127.563 38.8607C129.04 36.8416 130.519 35.8895 131.996 35.3077C133.474 34.7258 134.951 34.5154 136.43 37.676C137.907 40.8378 139.385 47.3706 140.862 44.782C142.341 42.1934 143.818 30.4833 145.296 28.2016C146.773 25.92 148.252 33.0682 149.729 36.4924C151.206 39.9155 152.684 39.6159 154.161 36.4924C155.64 33.369 157.117 27.4217 158.595 25.8334C160.072 24.245 161.551 27.0144 163.028 27.0169C164.506 27.0194 165.983 24.2549 167.462 28.2016C168.939 32.1483 170.417 42.8074 171.894 42.4137C173.373 42.0201 174.85 30.5761 176.328 29.3864C177.805 28.1955 179.284 37.2612 180.761 41.229C182.239 45.198 183.716 44.0702 185.195 42.4137C186.672 40.7573 188.15 38.5698 189.627 36.4924C191.106 34.4139 192.583 32.443 194.061 29.3864C195.538 26.3286 197.017 22.1838 198.494 25.8334C199.972 29.4817 201.449 40.9244 202.928 40.0455C204.405 39.1653 205.883 25.9646 207.36 25.8334C208.839 25.7009 210.316 38.6379 211.794 38.8607C213.271 39.0836 214.75 26.591 216.227 25.8334C217.705 25.0745 219.182 36.0517 220.661 37.676C222.138 39.3014 223.616 31.5739 225.093 27.0169C226.57 22.4611 228.049 21.0746 229.526 24.6486C231.004 28.2227 232.481 36.7561 233.96 41.229C235.437 45.7031 236.915 46.1153 238.392 45.9668C239.871 45.8182 241.348 45.1076 242.826 42.4137C244.303 39.7199 245.782 35.0428 247.259 35.3077C248.737 35.5726 250.214 40.7808 251.693 40.0455C253.17 39.3089 254.648 32.6299 256.125 29.3864C257.604 26.1416 259.081 26.3311 260.559 30.5699C262.036 34.8088 263.515 43.0971 264.992 42.4137C266.47 41.7304 267.947 32.0741 269.426 29.3864C270.903 26.6975 272.381 30.9772 273.858 31.7547C275.337 32.5321 276.814 29.8061 278.292 27.0169C279.769 24.2277 281.248 21.3754 282.725 27.0169C284.203 32.6596 285.68 46.7974 287.159 45.9668C288.636 45.1361 290.114 29.3381 291.591 29.3864C293.07 29.4334 294.547 45.3255 296.025 44.782C297.502 44.2398 298.981 27.2608 300.458 27.0169C301.935 26.7743 303.413 43.2667 304.89 43.5985C306.369 43.929 307.846 28.0989 309.324 27.0169C310.801 25.9361 312.28 39.6047 313.757 42.4137C315.235 45.2227 316.712 37.1746 318.191 34.1229C319.668 31.0725 321.146 33.0187 322.623 31.7547C324.102 30.4907 325.579 26.0154 327.057 25.8334C328.534 25.6502 330.013 29.7603 331.49 32.9394C332.968 36.1173 334.445 38.3655 335.924 41.229C337.401 44.0937 338.879 47.5737 340.356 44.782C341.835 41.9916 343.312 32.9283 344.79 28.2016C346.267 23.475 347.746 23.0826 349.223 23.4639C350.701 23.8464 352.178 25.0015 353.657 28.2016C355.134 31.4018 356.612 36.646 358.089 37.676C359.568 38.7072 361.045 35.5231 362.523 37.676C364 39.8301 365.479 47.3211 366.956 45.9668C368.434 44.6124 369.911 34.4126 371.39 31.7547C372.867 29.0967 374.345 33.9781 375.822 38.8607V104C374.345 104 372.867 104 371.39 104C369.911 104 368.434 104 366.956 104C365.479 104 364 104 362.523 104C361.045 104 359.568 104 358.089 104C356.612 104 355.134 104 353.657 104C352.178 104 350.701 104 349.223 104C347.746 104 346.267 104 344.79 104C343.312 104 341.835 104 340.356 104C338.879 104 337.401 104 335.924 104C334.445 104 332.968 104 331.49 104C330.013 104 328.534 104 327.057 104C325.579 104 324.102 104 322.623 104C321.146 104 319.668 104 318.191 104C316.712 104 315.235 104 313.757 104C312.28 104 310.801 104 309.324 104C307.846 104 306.369 104 304.89 104C303.413 104 301.935 104 300.458 104C298.981 104 297.502 104 296.025 104C294.547 104 293.07 104 291.591 104C290.114 104 288.636 104 287.159 104C285.68 104 284.203 104 282.725 104C281.248 104 279.769 104 278.292 104C276.814 104 275.337 104 273.858 104C272.381 104 270.903 104 269.426 104C267.947 104 266.47 104 264.992 104C263.515 104 262.036 104 260.559 104C259.081 104 257.604 104 256.125 104C254.648 104 253.17 104 251.693 104C250.214 104 248.737 104 247.259 104C245.782 104 244.303 104 242.826 104C241.348 104 239.871 104 238.392 104C236.915 104 235.437 104 233.96 104C232.481 104 231.004 104 229.526 104C228.049 104 226.57 104 225.093 104C223.616 104 222.138 104 220.661 104C219.182 104 217.705 104 216.227 104C214.75 104 213.271 104 211.794 104C210.316 104 208.839 104 207.36 104C205.883 104 204.405 104 202.928 104C201.449 104 199.972 104 198.494 104C197.017 104 195.538 104 194.061 104C192.583 104 191.106 104 189.627 104C188.15 104 186.672 104 185.195 104C183.716 104 182.239 104 180.761 104C179.284 104 177.805 104 176.328 104C174.85 104 173.373 104 171.894 104C170.417 104 168.939 104 167.462 104C165.983 104 164.506 104 163.028 104C161.551 104 160.072 104 158.595 104C157.117 104 155.64 104 154.161 104C152.684 104 151.206 104 149.729 104C148.252 104 146.773 104 145.296 104C143.818 104 142.341 104 140.862 104C139.385 104 137.907 104 136.43 104C134.951 104 133.474 104 131.996 104C130.519 104 129.04 104 127.563 104C126.085 104 124.608 104 123.129 104C121.652 104 120.174 104 118.697 104C117.218 104 115.741 104 114.263 104C112.786 104 111.307 104 109.83 104C108.352 104 106.875 104 105.396 104C103.919 104 102.441 104 100.964 104C99.4855 104 98.0084 104 96.53 104C95.0529 104 93.5745 104 92.0974 104C90.619 104 89.1419 104 87.6635 104C86.1864 104 84.708 104 83.2309 104C81.7525 104 80.2754 104 78.797 104C77.3199 104 75.8415 104 74.3645 104C72.8874 104 71.409 104 69.9319 104C68.4535 104 66.9764 104 65.498 104C64.0209 104 62.5425 104 61.0654 104C59.587 104 58.1099 104 56.6315 104C55.1544 104 53.676 104 52.1989 104C50.7205 104 49.2434 104 47.765 104C46.2879 104 44.8095 104 43.3324 104C41.854 104 40.3769 104 38.8985 104C37.4214 104 35.943 104 34.4659 104C32.9875 104 31.5104 104 30.032 104C28.5549 104 27.0765 104 25.5995 104C24.121 104 22.644 104 21.1656 104C19.6885 104 18.2101 104 16.733 104C15.2546 104 13.7775 104 12.2991 104C10.822 104 9.34357 104 7.86648 104C6.38808 104 4.91099 104 3.43259 104C1.95549 104 0.477091 104 -1 104V44.782Z" fill="#8335D5" fill-opacity="0.15"/>
<path d="M-1 41.2291C0.477091 37.8618 1.95549 34.4933 3.43259 34.1231C4.91099 33.7542 6.38808 36.3812 7.86648 41.2291C9.34357 46.0771 10.822 53.1448 12.2991 50.7047C13.7775 48.2634 15.2546 36.3156 16.733 34.1231C18.2101 31.9306 19.6885 39.4947 21.1656 41.2291C22.644 42.9648 24.121 38.8708 25.5995 41.2291C27.0765 43.5875 28.5549 52.397 30.032 50.7047C31.5104 49.0111 32.9875 36.8157 34.4659 36.4926C35.943 36.1695 37.4214 47.7174 38.8985 50.7047C40.3769 53.6907 41.854 48.1136 43.3324 42.4139C44.8095 36.7142 46.2879 30.8895 47.765 35.3078C49.2434 39.7262 50.7205 54.3865 52.1989 54.2577C53.676 54.1277 55.1544 39.2075 56.6315 34.1231C58.1099 29.0399 59.587 33.7926 61.0654 36.4926C62.5425 39.1914 64.0209 39.8364 65.498 42.4139C66.9764 44.9914 68.4535 49.5014 69.9319 49.5199C71.409 49.5385 72.8874 45.0669 74.3645 45.9669C75.8415 46.8669 77.3199 53.1398 78.797 54.2577C80.2754 55.3744 81.7525 51.3348 83.2309 50.7047C84.708 50.0733 86.1864 52.8514 87.6635 49.5199C89.1419 46.1885 90.619 36.7452 92.0974 36.4926C93.5745 36.2388 95.0529 45.1746 96.53 44.7822C98.0084 44.391 99.4855 34.6728 100.964 36.4926C102.441 38.3124 103.919 51.6703 105.396 50.7047C106.875 49.7378 108.352 34.4474 109.83 35.3078C111.307 36.1682 112.786 53.1807 114.263 54.2577C115.741 55.3348 117.218 40.4764 118.697 37.6761C120.174 34.877 121.652 44.1347 123.129 47.1517C124.608 50.1674 126.085 46.9424 127.563 48.3352C129.04 49.7292 130.519 55.7421 131.996 55.4412C133.474 55.1416 134.951 48.5271 136.43 43.5986C137.907 38.669 139.385 35.4242 140.862 34.1231C142.341 32.8232 143.818 33.4657 145.296 37.6761C146.773 41.8877 148.252 49.6673 149.729 49.5199C151.206 49.3726 152.684 41.2997 154.161 37.6761C155.64 34.0525 157.117 34.8783 158.595 36.4926C160.072 38.1057 161.551 40.5086 163.028 40.0456C164.506 39.5814 165.983 36.2524 167.462 35.3078C168.939 34.3633 170.417 35.8043 171.894 37.6761C173.373 39.5492 174.85 41.8543 176.328 45.9669C177.805 50.0795 179.284 56.0008 180.761 54.2577C182.239 52.5134 183.716 43.1059 185.195 41.2291C186.672 39.3524 188.15 45.0062 189.627 44.7822C191.106 44.5593 192.583 38.4585 194.061 36.4926C195.538 34.5254 197.017 36.6944 198.494 37.6761C199.972 38.6591 201.449 38.4573 202.928 38.8609C204.405 39.2645 205.883 40.2759 207.36 43.5986C208.839 46.9202 210.316 52.5555 211.794 51.8882C213.271 51.2222 214.75 44.2548 216.227 44.7822C217.705 45.3095 219.182 53.3317 220.661 51.8882C222.138 50.4447 223.616 39.5356 225.093 36.4926C226.57 33.4484 228.049 38.2703 229.526 42.4139C231.004 46.5574 232.481 50.0238 233.96 48.3352C235.437 46.6466 236.915 39.8042 238.392 41.2291C239.871 42.6553 241.348 52.3487 242.826 53.073C244.303 53.7972 245.782 45.5497 247.259 42.4139C248.737 39.2781 250.214 41.2539 251.693 45.9669C253.17 50.6799 254.648 58.1314 256.125 55.4412C257.604 52.7523 259.081 39.9218 260.559 36.4926C262.036 33.0621 263.515 39.0329 264.992 40.0456C266.47 41.0571 267.947 37.1104 269.426 37.6761C270.903 38.2431 272.381 43.3226 273.858 43.5986C275.337 43.8735 276.814 39.3437 278.292 38.8609C279.769 38.3781 281.248 41.941 282.725 44.7822C284.203 47.6246 285.68 49.744 287.159 51.8882C288.636 54.0336 290.114 56.2038 291.591 54.2577C293.07 52.3104 294.547 46.2455 296.025 41.2291C297.502 36.2128 298.981 32.2451 300.458 35.3078C301.935 38.3706 303.413 48.4627 304.89 48.3352C306.369 48.2089 307.846 37.8643 309.324 40.0456C310.801 42.227 312.28 56.9342 313.757 55.4412C315.235 53.9482 316.712 36.2549 318.191 34.1231C319.668 31.9925 321.146 45.4222 322.623 49.5199C324.102 53.6177 325.579 48.381 327.057 48.3352C328.534 48.2906 330.013 53.4344 331.49 50.7047C332.968 47.9737 334.445 37.3679 335.924 37.6761C337.401 37.9856 338.879 49.2104 340.356 49.5199C341.835 49.8294 343.312 39.2248 344.79 38.8609C346.267 38.4969 347.746 48.3748 349.223 47.1517C350.701 45.9273 352.178 33.6031 353.657 35.3078C355.134 37.0126 356.612 52.7474 358.089 51.8882C359.568 51.029 361.045 33.5759 362.523 34.1231C364 34.6715 365.479 53.2203 366.956 54.2577C368.434 55.2939 369.911 38.8188 371.39 35.3078C372.867 31.7969 374.345 41.2502 375.822 50.7047V104C374.345 104 372.867 104 371.39 104C369.911 104 368.434 104 366.956 104C365.479 104 364 104 362.523 104C361.045 104 359.568 104 358.089 104C356.612 104 355.134 104 353.657 104C352.178 104 350.701 104 349.223 104C347.746 104 346.267 104 344.79 104C343.312 104 341.835 104 340.356 104C338.879 104 337.401 104 335.924 104C334.445 104 332.968 104 331.49 104C330.013 104 328.534 104 327.057 104C325.579 104 324.102 104 322.623 104C321.146 104 319.668 104 318.191 104C316.712 104 315.235 104 313.757 104C312.28 104 310.801 104 309.324 104C307.846 104 306.369 104 304.89 104C303.413 104 301.935 104 300.458 104C298.981 104 297.502 104 296.025 104C294.547 104 293.07 104 291.591 104C290.114 104 288.636 104 287.159 104C285.68 104 284.203 104 282.725 104C281.248 104 279.769 104 278.292 104C276.814 104 275.337 104 273.858 104C272.381 104 270.903 104 269.426 104C267.947 104 266.47 104 264.992 104C263.515 104 262.036 104 260.559 104C259.081 104 257.604 104 256.125 104C254.648 104 253.17 104 251.693 104C250.214 104 248.737 104 247.259 104C245.782 104 244.303 104 242.826 104C241.348 104 239.871 104 238.392 104C236.915 104 235.437 104 233.96 104C232.481 104 231.004 104 229.526 104C228.049 104 226.57 104 225.093 104C223.616 104 222.138 104 220.661 104C219.182 104 217.705 104 216.227 104C214.75 104 213.271 104 211.794 104C210.316 104 208.839 104 207.36 104C205.883 104 204.405 104 202.928 104C201.449 104 199.972 104 198.494 104C197.017 104 195.538 104 194.061 104C192.583 104 191.106 104 189.627 104C188.15 104 186.672 104 185.195 104C183.716 104 182.239 104 180.761 104C179.284 104 177.805 104 176.328 104C174.85 104 173.373 104 171.894 104C170.417 104 168.939 104 167.462 104C165.983 104 164.506 104 163.028 104C161.551 104 160.072 104 158.595 104C157.117 104 155.64 104 154.161 104C152.684 104 151.206 104 149.729 104C148.252 104 146.773 104 145.296 104C143.818 104 142.341 104 140.862 104C139.385 104 137.907 104 136.43 104C134.951 104 133.474 104 131.996 104C130.519 104 129.04 104 127.563 104C126.085 104 124.608 104 123.129 104C121.652 104 120.174 104 118.697 104C117.218 104 115.741 104 114.263 104C112.786 104 111.307 104 109.83 104C108.352 104 106.875 104 105.396 104C103.919 104 102.441 104 100.964 104C99.4855 104 98.0084 104 96.53 104C95.0529 104 93.5745 104 92.0974 104C90.619 104 89.1419 104 87.6635 104C86.1864 104 84.708 104 83.2309 104C81.7525 104 80.2754 104 78.797 104C77.3199 104 75.8415 104 74.3645 104C72.8874 104 71.409 104 69.9319 104C68.4535 104 66.9764 104 65.498 104C64.0209 104 62.5425 104 61.0654 104C59.587 104 58.1099 104 56.6315 104C55.1544 104 53.676 104 52.1989 104C50.7205 104 49.2434 104 47.765 104C46.2879 104 44.8095 104 43.3324 104C41.854 104 40.3769 104 38.8985 104C37.4214 104 35.943 104 34.4659 104C32.9875 104 31.5104 104 30.032 104C28.5549 104 27.0765 104 25.5995 104C24.121 104 22.644 104 21.1656 104C19.6885 104 18.2101 104 16.733 104C15.2546 104 13.7775 104 12.2991 104C10.822 104 9.34357 104 7.86648 104C6.38808 104 4.91099 104 3.43259 104C1.95549 104 0.477091 104 -1 104V41.2291Z" fill="#8335D5" fill-opacity="0.15"/>
<path d="M-1 64.9168C0.477091 65.9431 1.95549 66.9694 3.43259 64.9168C4.91099 62.8642 6.38808 57.7315 7.86648 56.626C9.34357 55.5205 10.822 58.4397 12.2991 61.3638C13.7775 64.2867 15.2546 67.2133 16.733 64.9168C18.2101 62.6203 19.6885 55.1008 21.1656 51.8882C22.644 48.6769 24.121 49.7713 25.5995 49.52C27.0765 49.2687 28.5549 47.6717 30.032 45.967C31.5104 44.2622 32.9875 42.4486 34.4659 44.7822C35.943 47.1158 37.4214 53.5967 38.8985 54.2577C40.3769 54.9176 41.854 49.7577 43.3324 48.3352C44.8095 46.914 46.2879 49.2303 47.765 53.073C49.2434 56.9157 50.7205 62.2836 52.1989 64.9168C53.676 67.5488 55.1544 67.4448 56.6315 63.7321C58.1099 60.0193 59.587 52.6954 61.0654 53.073C62.5425 53.4506 64.0209 61.5284 65.498 64.9168C66.9764 68.3039 68.4535 67.0016 69.9319 64.9168C71.409 62.8308 72.8874 59.9624 74.3645 60.179C75.8415 60.3957 77.3199 63.6962 78.797 63.7321C80.2754 63.768 81.7525 60.5381 83.2309 57.8108C84.708 55.0835 86.1864 52.8588 87.6635 55.4413C89.1419 58.0237 90.619 65.4132 92.0974 63.7321C93.5745 62.0509 95.0529 51.299 96.53 49.52C98.0084 47.741 99.4855 54.9337 100.964 55.4413C102.441 55.9501 103.919 49.7738 105.396 49.52C106.875 49.2662 108.352 54.9349 109.83 54.2577C111.307 53.5806 112.786 46.5575 114.263 44.7822C115.741 43.0082 117.218 46.482 118.697 47.1517C120.174 47.8202 121.652 45.6847 123.129 45.967C124.608 46.2492 126.085 48.948 127.563 53.073C129.04 57.198 130.519 62.7479 131.996 64.9168C133.474 67.0845 134.951 65.8701 136.43 62.5473C137.907 59.2258 139.385 53.7947 140.862 53.073C142.341 52.3512 143.818 56.3376 145.296 54.2577C146.773 52.1767 148.252 44.0307 149.729 45.967C151.206 47.9032 152.684 59.924 154.161 63.7321C155.64 67.5401 157.117 63.1366 158.595 58.9943C160.072 54.8532 161.551 50.9746 163.028 51.8882C164.506 52.8031 165.983 58.5102 167.462 60.179C168.939 61.8478 170.417 59.4796 171.894 58.9943C173.373 58.509 174.85 59.9067 176.328 61.3638C177.805 62.8197 179.284 64.335 180.761 61.3638C182.239 58.3926 183.716 50.935 185.195 50.7047C186.672 50.4732 188.15 57.4691 189.627 60.179C191.106 62.889 192.583 61.313 194.061 57.8108C195.538 54.3073 197.017 48.8775 198.494 47.1517C199.972 45.4247 201.449 47.4005 202.928 47.1517C204.405 46.9016 205.883 44.4257 207.36 47.1517C208.839 49.8765 210.316 57.8046 211.794 61.3638C213.271 64.9218 214.75 64.1121 216.227 60.179C217.705 56.246 219.182 49.1894 220.661 50.7047C222.138 52.22 223.616 62.3059 225.093 61.3638C226.57 60.4204 228.049 48.4479 229.526 49.52C231.004 50.5921 232.481 64.7101 233.96 64.9168C235.437 65.1223 236.915 51.4178 238.392 50.7047C239.871 49.9916 241.348 62.2712 242.826 62.5473C244.303 62.8246 245.782 51.0984 247.259 45.967C248.737 40.8355 250.214 42.3 251.693 45.967C253.17 49.6339 254.648 55.5032 256.125 56.626C257.604 57.7489 259.081 54.124 260.559 53.073C262.036 52.0219 263.515 53.5459 264.992 54.2577C266.47 54.9684 267.947 54.8681 269.426 55.4413C270.903 56.0157 272.381 57.2636 273.858 55.4413C275.337 53.6202 276.814 48.7277 278.292 45.967C279.769 43.2062 281.248 42.5761 282.725 48.3352C284.203 54.0943 285.68 66.2427 287.159 66.1003C288.636 65.9592 290.114 53.5286 291.591 51.8882C293.07 50.2492 294.547 59.4016 296.025 60.179C297.502 60.9565 298.981 53.359 300.458 50.7047C301.935 48.0505 303.413 50.3395 304.89 50.7047C306.369 51.0687 307.846 49.5076 309.324 49.52C310.801 49.5324 312.28 51.1195 313.757 50.7047C315.235 50.29 316.712 47.8735 318.191 50.7047C319.668 53.5348 321.146 61.6139 322.623 63.7321C324.102 65.8503 325.579 62.0088 327.057 62.5473C328.534 63.0871 330.013 68.0056 331.49 63.7321C332.968 59.4585 334.445 45.993 335.924 47.1517C337.401 48.3105 338.879 64.0935 340.356 64.9168C341.835 65.7388 343.312 51.601 344.79 47.1517C346.267 42.7011 347.746 47.9391 349.223 53.073C350.701 58.2069 352.178 63.2356 353.657 60.179C355.134 57.1224 356.612 45.9793 358.089 44.7822C359.568 43.5863 361.045 52.3376 362.523 56.626C364 60.9144 365.479 60.7411 366.956 62.5473C368.434 64.3535 369.911 68.1393 371.39 66.1003C372.867 64.0614 374.345 56.1989 375.822 48.3352V104C374.345 104 372.867 104 371.39 104C369.911 104 368.434 104 366.956 104C365.479 104 364 104 362.523 104C361.045 104 359.568 104 358.089 104C356.612 104 355.134 104 353.657 104C352.178 104 350.701 104 349.223 104C347.746 104 346.267 104 344.79 104C343.312 104 341.835 104 340.356 104C338.879 104 337.401 104 335.924 104C334.445 104 332.968 104 331.49 104C330.013 104 328.534 104 327.057 104C325.579 104 324.102 104 322.623 104C321.146 104 319.668 104 318.191 104C316.712 104 315.235 104 313.757 104C312.28 104 310.801 104 309.324 104C307.846 104 306.369 104 304.89 104C303.413 104 301.935 104 300.458 104C298.981 104 297.502 104 296.025 104C294.547 104 293.07 104 291.591 104C290.114 104 288.636 104 287.159 104C285.68 104 284.203 104 282.725 104C281.248 104 279.769 104 278.292 104C276.814 104 275.337 104 273.858 104C272.381 104 270.903 104 269.426 104C267.947 104 266.47 104 264.992 104C263.515 104 262.036 104 260.559 104C259.081 104 257.604 104 256.125 104C254.648 104 253.17 104 251.693 104C250.214 104 248.737 104 247.259 104C245.782 104 244.303 104 242.826 104C241.348 104 239.871 104 238.392 104C236.915 104 235.437 104 233.96 104C232.481 104 231.004 104 229.526 104C228.049 104 226.57 104 225.093 104C223.616 104 222.138 104 220.661 104C219.182 104 217.705 104 216.227 104C214.75 104 213.271 104 211.794 104C210.316 104 208.839 104 207.36 104C205.883 104 204.405 104 202.928 104C201.449 104 199.972 104 198.494 104C197.017 104 195.538 104 194.061 104C192.583 104 191.106 104 189.627 104C188.15 104 186.672 104 185.195 104C183.716 104 182.239 104 180.761 104C179.284 104 177.805 104 176.328 104C174.85 104 173.373 104 171.894 104C170.417 104 168.939 104 167.462 104C165.983 104 164.506 104 163.028 104C161.551 104 160.072 104 158.595 104C157.117 104 155.64 104 154.161 104C152.684 104 151.206 104 149.729 104C148.252 104 146.773 104 145.296 104C143.818 104 142.341 104 140.862 104C139.385 104 137.907 104 136.43 104C134.951 104 133.474 104 131.996 104C130.519 104 129.04 104 127.563 104C126.085 104 124.608 104 123.129 104C121.652 104 120.174 104 118.697 104C117.218 104 115.741 104 114.263 104C112.786 104 111.307 104 109.83 104C108.352 104 106.875 104 105.396 104C103.919 104 102.441 104 100.964 104C99.4855 104 98.0084 104 96.53 104C95.0529 104 93.5745 104 92.0974 104C90.619 104 89.1419 104 87.6635 104C86.1864 104 84.708 104 83.2309 104C81.7525 104 80.2754 104 78.797 104C77.3199 104 75.8415 104 74.3645 104C72.8874 104 71.409 104 69.9319 104C68.4535 104 66.9764 104 65.498 104C64.0209 104 62.5425 104 61.0654 104C59.587 104 58.1099 104 56.6315 104C55.1544 104 53.676 104 52.1989 104C50.7205 104 49.2434 104 47.765 104C46.2879 104 44.8095 104 43.3324 104C41.854 104 40.3769 104 38.8985 104C37.4214 104 35.943 104 34.4659 104C32.9875 104 31.5104 104 30.032 104C28.5549 104 27.0765 104 25.5995 104C24.121 104 22.644 104 21.1656 104C19.6885 104 18.2101 104 16.733 104C15.2546 104 13.7775 104 12.2991 104C10.822 104 9.34357 104 7.86648 104C6.38808 104 4.91099 104 3.43259 104C1.95549 104 0.477091 104 -1 104V64.9168Z" fill="#8335D5" fill-opacity="0.15"/>
<path d="M-1 56.6261C0.477091 59.3497 1.95549 62.0732 3.43259 66.1004C4.91099 70.1276 6.38808 75.4596 7.86648 70.8382C9.34357 66.2168 10.822 51.6444 12.2991 53.0731C13.7775 54.5017 15.2546 71.9326 16.733 73.2065C18.2101 74.4803 19.6885 59.5973 21.1656 54.2578C22.644 48.9184 24.121 53.1226 25.5995 57.8109C27.0765 62.4991 28.5549 67.6702 30.032 67.2852C31.5104 66.9002 32.9875 60.9578 34.4659 61.3639C35.943 61.7699 37.4214 68.5244 38.8985 68.4699C40.3769 68.4154 41.854 61.552 43.3324 63.7321C44.8095 65.9122 46.2879 77.1346 47.765 74.3912C49.2434 71.6478 50.7205 54.9375 52.1989 53.0731C53.676 51.2087 55.1544 64.1902 56.6315 66.1004C58.1099 68.0106 59.587 58.8495 61.0654 55.4413C62.5425 52.0344 64.0209 54.3804 65.498 56.6261C66.9764 58.8718 68.4535 61.016 69.9319 61.3639C71.409 61.7118 72.8874 60.2633 74.3645 58.9944C75.8415 57.7267 77.3199 56.6372 78.797 56.6261C80.2754 56.615 81.7525 57.6796 83.2309 60.1791C84.708 62.6786 86.1864 66.6129 87.6635 67.2852C89.1419 67.9574 90.619 65.3663 92.0974 67.2852C93.5745 69.204 95.0529 75.6304 96.53 75.576C98.0084 75.5203 99.4855 68.9824 100.964 64.9169C102.441 60.8501 103.919 59.2568 105.396 62.5474C106.875 65.838 108.352 74.0136 109.83 73.2065C111.307 72.4005 112.786 62.6118 114.263 62.5474C115.741 62.4843 117.218 72.1467 118.697 72.0229C120.174 71.8991 121.652 61.9891 123.129 56.6261C124.608 51.2631 126.085 50.4485 127.563 54.2578C129.04 58.0671 130.519 66.5003 131.996 70.8382C133.474 75.1761 134.951 75.4187 136.43 73.2065C137.907 70.9954 139.385 66.3307 140.862 63.7321C142.341 61.1336 143.818 60.6025 145.296 62.5474C146.773 64.4935 148.252 68.9156 149.729 66.1004C151.206 63.2852 152.684 53.2328 154.161 54.2578C155.64 55.2816 157.117 67.383 158.595 68.4699C160.072 69.5569 161.551 59.6282 163.028 56.6261C164.506 53.624 165.983 57.5459 167.462 61.3639C168.939 65.1806 170.417 68.8945 171.894 70.8382C173.373 72.7818 174.85 72.9564 176.328 73.2065C177.805 73.4565 179.284 73.7821 180.761 72.0229C182.239 70.2625 183.716 66.4173 185.195 62.5474C186.672 58.6787 188.15 54.7852 189.627 56.6261C191.106 58.467 192.583 66.0398 194.061 68.4699C195.538 70.8989 197.017 68.1839 198.494 67.2852C199.972 66.3864 201.449 67.305 202.928 68.4699C204.405 69.6336 205.883 71.0449 207.36 67.2852C208.839 63.5254 210.316 54.5933 211.794 56.6261C213.271 58.6589 214.75 71.6553 216.227 72.0229C217.705 72.3894 219.182 60.1259 220.661 56.6261C222.138 53.1263 223.616 58.389 225.093 61.3639C226.57 64.3375 228.049 65.0234 229.526 63.7321C231.004 62.4409 232.481 59.1739 233.96 60.1791C235.437 61.1844 236.915 66.4619 238.392 69.6534C239.871 72.845 241.348 73.9517 242.826 70.8382C244.303 67.7246 245.782 60.3933 247.259 57.8109C248.737 55.2272 250.214 57.3924 251.693 60.1791C253.17 62.9658 254.648 66.3765 256.125 68.4699C257.604 70.5621 259.081 71.3396 260.559 68.4699C262.036 65.6003 263.515 59.0847 264.992 57.8109C266.47 56.5357 267.947 60.5035 269.426 61.3639C270.903 62.223 272.381 59.9761 273.858 63.7321C275.337 67.4882 276.814 77.246 278.292 75.576C279.769 73.9047 281.248 60.8031 282.725 58.9944C284.203 57.1857 285.68 66.6686 287.159 69.6534C288.636 72.6382 290.114 69.1248 291.591 69.6534C293.07 70.182 294.547 74.7527 296.025 72.0229C297.502 69.2919 298.981 59.2618 300.458 56.6261C301.935 53.9904 303.413 58.7505 304.89 58.9944C306.369 59.2395 307.846 54.9684 309.324 57.8109C310.801 60.6533 312.28 70.6092 313.757 73.2065C315.235 75.805 316.712 71.0449 318.191 68.4699C319.668 65.8937 321.146 65.5037 322.623 63.7321C324.102 61.9606 325.579 58.8099 327.057 60.1791C328.534 61.5483 330.013 67.4374 331.49 67.2852C332.968 67.1329 334.445 60.938 335.924 57.8109C337.401 54.6825 338.879 54.623 340.356 54.2578C341.835 53.8926 343.312 53.2216 344.79 53.0731C346.267 52.9245 347.746 53.2972 349.223 55.4413C350.701 57.5868 352.178 61.5038 353.657 62.5474C355.134 63.5922 356.612 61.765 358.089 61.3639C359.568 60.9628 361.045 61.9891 362.523 62.5474C364 63.107 365.479 63.1998 366.956 64.9169C368.434 66.634 369.911 69.9753 371.39 70.8382C372.867 71.7011 374.345 70.0855 375.822 68.4699V104C374.345 104 372.867 104 371.39 104C369.911 104 368.434 104 366.956 104C365.479 104 364 104 362.523 104C361.045 104 359.568 104 358.089 104C356.612 104 355.134 104 353.657 104C352.178 104 350.701 104 349.223 104C347.746 104 346.267 104 344.79 104C343.312 104 341.835 104 340.356 104C338.879 104 337.401 104 335.924 104C334.445 104 332.968 104 331.49 104C330.013 104 328.534 104 327.057 104C325.579 104 324.102 104 322.623 104C321.146 104 319.668 104 318.191 104C316.712 104 315.235 104 313.757 104C312.28 104 310.801 104 309.324 104C307.846 104 306.369 104 304.89 104C303.413 104 301.935 104 300.458 104C298.981 104 297.502 104 296.025 104C294.547 104 293.07 104 291.591 104C290.114 104 288.636 104 287.159 104C285.68 104 284.203 104 282.725 104C281.248 104 279.769 104 278.292 104C276.814 104 275.337 104 273.858 104C272.381 104 270.903 104 269.426 104C267.947 104 266.47 104 264.992 104C263.515 104 262.036 104 260.559 104C259.081 104 257.604 104 256.125 104C254.648 104 253.17 104 251.693 104C250.214 104 248.737 104 247.259 104C245.782 104 244.303 104 242.826 104C241.348 104 239.871 104 238.392 104C236.915 104 235.437 104 233.96 104C232.481 104 231.004 104 229.526 104C228.049 104 226.57 104 225.093 104C223.616 104 222.138 104 220.661 104C219.182 104 217.705 104 216.227 104C214.75 104 213.271 104 211.794 104C210.316 104 208.839 104 207.36 104C205.883 104 204.405 104 202.928 104C201.449 104 199.972 104 198.494 104C197.017 104 195.538 104 194.061 104C192.583 104 191.106 104 189.627 104C188.15 104 186.672 104 185.195 104C183.716 104 182.239 104 180.761 104C179.284 104 177.805 104 176.328 104C174.85 104 173.373 104 171.894 104C170.417 104 168.939 104 167.462 104C165.983 104 164.506 104 163.028 104C161.551 104 160.072 104 158.595 104C157.117 104 155.64 104 154.161 104C152.684 104 151.206 104 149.729 104C148.252 104 146.773 104 145.296 104C143.818 104 142.341 104 140.862 104C139.385 104 137.907 104 136.43 104C134.951 104 133.474 104 131.996 104C130.519 104 129.04 104 127.563 104C126.085 104 124.608 104 123.129 104C121.652 104 120.174 104 118.697 104C117.218 104 115.741 104 114.263 104C112.786 104 111.307 104 109.83 104C108.352 104 106.875 104 105.396 104C103.919 104 102.441 104 100.964 104C99.4855 104 98.0084 104 96.53 104C95.0529 104 93.5745 104 92.0974 104C90.619 104 89.1419 104 87.6635 104C86.1864 104 84.708 104 83.2309 104C81.7525 104 80.2754 104 78.797 104C77.3199 104 75.8415 104 74.3645 104C72.8874 104 71.409 104 69.9319 104C68.4535 104 66.9764 104 65.498 104C64.0209 104 62.5425 104 61.0654 104C59.587 104 58.1099 104 56.6315 104C55.1544 104 53.676 104 52.1989 104C50.7205 104 49.2434 104 47.765 104C46.2879 104 44.8095 104 43.3324 104C41.854 104 40.3769 104 38.8985 104C37.4214 104 35.943 104 34.4659 104C32.9875 104 31.5104 104 30.032 104C28.5549 104 27.0765 104 25.5995 104C24.121 104 22.644 104 21.1656 104C19.6885 104 18.2101 104 16.733 104C15.2546 104 13.7775 104 12.2991 104C10.822 104 9.34357 104 7.86648 104C6.38808 104 4.91099 104 3.43259 104C1.95549 104 0.477091 104 -1 104V56.6261Z" fill="#8335D5" fill-opacity="0.15"/>
</svg>
