<?xml version="1.0" encoding="UTF-8" standalone="no"?>
<svg
   width="29"
   height="28"
   viewBox="0 0 29 28"
   fill="none"
   version="1.1"
   id="svg11"
   sodipodi:docname="Group 859 (1).svg"
   xmlns:inkscape="http://www.inkscape.org/namespaces/inkscape"
   xmlns:sodipodi="http://sodipodi.sourceforge.net/DTD/sodipodi-0.dtd"
   xmlns="http://www.w3.org/2000/svg"
   xmlns:svg="http://www.w3.org/2000/svg">
  <sodipodi:namedview
     id="namedview13"
     pagecolor="#ffffff"
     bordercolor="#000000"
     borderopacity="0.25"
     inkscape:showpageshadow="2"
     inkscape:pageopacity="0.0"
     inkscape:pagecheckerboard="0"
     inkscape:deskcolor="#d1d1d1" />
  <g
     clip-path="url(#clip0_576_3862)"
     id="g4">
    <path
       fill-rule="evenodd"
       clip-rule="evenodd"
       d="M29 14C29 17.713 27.525 21.274 24.8995 23.8995C22.274 26.525 18.713 28 15 28C11.287 28 7.72601 26.525 5.1005 23.8995C2.475 21.274 1 17.713 1 14C1 10.287 2.475 6.72601 5.1005 4.1005C7.72601 1.475 11.287 0 15 0C18.713 0 22.274 1.475 24.8995 4.1005C27.525 6.72601 29 10.287 29 14ZM14 9.25C13.0054 9.25 12.0516 9.64509 11.3483 10.3483C10.6451 11.0516 10.25 12.0054 10.25 13C10.25 13.9946 10.6451 14.9484 11.3483 15.6517C12.0516 16.3549 13.0054 16.75 14 16.75C14.9946 16.75 15.9484 16.3549 16.6517 15.6517C17.3549 14.9484 17.75 13.9946 17.75 13C17.75 12.0054 17.3549 11.0516 16.6517 10.3483C15.9484 9.64509 14.9946 9.25 14 9.25ZM7.75 13C7.74996 12.0254 7.97786 11.0642 8.41549 10.1934C8.85312 9.32251 9.48835 8.56607 10.2704 7.98447C11.0525 7.40288 11.9598 7.01225 12.9198 6.8438C13.8797 6.67535 14.8658 6.73374 15.7992 7.0143C16.7326 7.29487 17.5874 7.78984 18.2954 8.45967C19.0034 9.1295 19.5449 9.95562 19.8767 10.872C20.2085 11.7885 20.3214 12.7698 20.2063 13.7376C20.0912 14.7054 19.7514 15.6329 19.214 16.446L21.884 19.116C22.1185 19.3505 22.2502 19.6684 22.2502 20C22.2502 20.3316 22.1185 20.6495 21.884 20.884C21.6495 21.1185 21.3316 21.2502 21 21.2502C20.6684 21.2502 20.3505 21.1185 20.116 20.884L17.446 18.214C16.504 18.8365 15.411 19.1923 14.283 19.2434C13.1551 19.2945 12.0344 19.0392 11.0399 18.5044C10.0455 17.9697 9.21448 17.1755 8.63521 16.2063C8.05593 15.2371 7.75003 14.1291 7.75 13Z"
       fill="white"
       id="path2" />
  </g>
  <defs
     id="defs9">
    <clipPath
       id="clip0_576_3862">
      <rect
         width="28"
         height="28"
         fill="white"
         transform="translate(0.5)"
         id="rect6" />
    </clipPath>
  </defs>
</svg>
